<?xml version="1.0" encoding="UTF-8" standalone="no"?>
<svg
   xmlns:dc="http://purl.org/dc/elements/1.1/"
   xmlns:cc="http://creativecommons.org/ns#"
   xmlns:rdf="http://www.w3.org/1999/02/22-rdf-syntax-ns#"
   xmlns:svg="http://www.w3.org/2000/svg"
   xmlns="http://www.w3.org/2000/svg"
   stroke-miterlimit="10"
   viewBox="0 0 254.95 252.35001"
   id="svg2"
   version="1.1"
   style="clip-rule:evenodd;stroke-miterlimit:10">
  <g transform="matrix(1,0,0,-1,-72.525,326.175)">
    <path
       d="m 221.8,130.1 c 12.9,-12.9 12.9,-33.8 0,-46.6 -12.9,-12.9 -33.8,-12.9 -46.6,0 -12.9,12.8 -12.9,33.7 0,46.6 12.8,12.8 33.7,12.8 46.6,0 z m 0,0"
       style="fill:#e74b3b" />
    <path
       d="m 221.8,316.5 c 12.9,-12.9 12.9,-33.8 0,-46.6 -12.9,-12.9 -33.8,-12.9 -46.7,0 -12.8,12.8 -12.8,33.7 0,46.6 12.9,12.9 33.8,12.9 46.7,0 z m 0,0"
       style="fill:#e74b3b" />
    <path
       d="m 317.8,224.1 c 12.9,-12.9 12.9,-33.8 0,-46.7 -12.9,-12.9 -33.8,-12.9 -46.7,0 -12.8,12.9 -12.8,33.8 0,46.7 12.9,12.9 33.8,12.9 46.7,0 z m 0,0"
       style="fill:#e74b3b" />
    <path
       d="m 128.9,224.1 c 12.8,-12.9 12.8,-33.8 0,-46.7 -12.9,-12.9 -33.8,-12.9 -46.7,0 -12.9,12.9 -12.9,33.8 0,46.7 12.9,12.9 33.8,12.9 46.7,0 z m 0,0"
       style="fill:#e74b3b" />
    <path
       d="m 266.4,268.6 c 37.4,-37.5 37.4,-98.2 0,-135.7 -37.5,-37.5 -98.3,-37.5 -135.8,0 -37.5,37.5 -37.5,98.2 0,135.7 37.5,37.5 98.3,37.5 135.8,0 z m 0,0"
       style="fill:#3498da" />
    <g transform="matrix(1,0,0,-1,218.1,179)" style="font-size:60px;fill:#feffff" >
      <path
         style="font-size:60px;fill:#feffff"
         d="m 30.78,-1.44 0,-18.12 -21.6,0 0,18.12 q 0,0.6 -0.48,1.02 Q 8.28,0 7.68,0 7.08,0 6.66,-0.42 6.24,-0.84 6.24,-1.44 l 0,-39.12 q 0,-0.6 0.42,-1.02 0.42,-0.42 1.02,-0.42 0.6,0 1.02,0.42 0.48,0.42 0.48,1.02 l 0,18.12 21.6,0 0,-18.12 q 0,-0.6 0.42,-1.02 0.42,-0.42 1.02,-0.42 0.6,0 1.02,0.42 0.48,0.42 0.48,1.02 l 0,39.12 q 0,0.6 -0.48,1.02 Q 32.82,0 32.22,0 31.62,0 31.2,-0.42 30.78,-0.84 30.78,-1.44 Z m -62.8,-30.24 q 0.12,6 12.12,8.28 l 0.12,0 q 6.9,1.26 10.68,3.84 4.62,3 4.62,7.98 0,4.92 -4.68,8.28 -4.62,3.36 -10.86,3.36 Q -27.94,0 -35.5,-6 q -0.96,-0.84 -0.18,-1.86 0.36,-0.42 0.9,-0.48 0.54,-0.06 0.96,0.3 6.78,5.46 13.8,5.4 5.52,0 9.24,-2.76 3.6,-2.58 3.6,-6.24 0,-6.72 -13.14,-9.18 l -0.12,0 q -14.22,-2.64 -14.22,-10.86 0,-4.68 4.26,-7.8 4.32,-3.12 10.26,-3.12 2.58,0 5.16,0.9 2.64,0.84 4.08,1.68 1.44,0.78 3.72,2.28 1.08,0.72 0.36,1.86 -0.66,1.08 -1.8,0.36 -2.16,-1.38 -3.54,-2.16 -1.32,-0.78 -3.6,-1.5 -2.22,-0.78 -4.38,-0.78 -5.04,0 -8.58,2.52 -3.3,2.46 -3.3,5.76 z M -43.94,-0.06 -44.48,0 q -1.02,0 -1.38,-0.96 l -3.72,-9.9 -19.14,0 -3.72,9.9 Q -72.8,0 -73.82,0 l -0.54,-0.06 q -0.54,-0.24 -0.84,-0.78 -0.24,-0.6 0,-1.14 l 14.58,-38.94 q 0.42,-0.9 1.5,-0.9 1.08,0 1.38,0.9 l 14.58,38.94 q 0.24,0.54 0,1.14 -0.24,0.54 -0.78,0.78 z m -15.18,-36.3 -8.52,22.56 16.98,0 -8.46,-22.56 z" />
    </g>
  </g>
</svg>
